<svg width="100" height="100" viewBox="0 0 100 100" fill="none" xmlns="http://www.w3.org/2000/svg">
  <path d="M54.0013 14.0449C54.0013 11.811 52.1903 10 49.9564 10C47.7224 10 45.9114 11.811 45.9114 14.0449V45.9551H14.0449C11.811 45.9551 10 47.766 10 50C10 52.234 11.811 54.0449 14.0449 54.0449H34.7967L54.0013 43.9548V14.0449Z" />
  <path d="M67.5876 45.9551L45.9987 57.2979V85.9551C45.9987 88.189 47.8097 90 50.0436 90C52.2776 90 54.0886 88.189 54.0886 85.9551V54.0449H85.9551C88.189 54.0449 90 52.234 90 50C90 47.766 88.189 45.9551 85.9551 45.9551H67.5876Z" />
</svg>
