<svg width="100" height="100" viewBox="0 0 100 100" fill="none" xmlns="http://www.w3.org/2000/svg">
  <path d="M17.6665 10C15.4325 10 13.6215 11.811 13.6215 14.0449C13.6215 16.2789 15.4325 18.0899 17.6665 18.0899H76.3503L47.9657 46.4045H59.4207L81.9101 23.9705V82.1652C81.9101 84.3992 83.7211 86.2101 85.9551 86.2101C88.189 86.2101 90 84.3992 90 82.1652V14.0449C90 11.811 88.189 10 85.9551 10H17.6665Z" />
  <path d="M51.3108 54.4944H39.8559L11.1883 83.0913C9.60667 84.669 9.60351 87.2301 11.1812 88.8117C12.7589 90.3933 15.32 90.3965 16.9016 88.8188L51.3108 54.4944Z" />
</svg>
