<svg width="100" height="100" viewBox="0 0 100 100" fill="none" xmlns="http://www.w3.org/2000/svg">
  <rect width="100" height="100" fill="#ABABAB"/>
  <path fill-rule="evenodd" clip-rule="evenodd" d="M66 32H34C32.8954 32 32 32.8954 32 34V55.2667L44.6547 52.3139C45.5486 52.1053 46.4635 52 47.3814 52H52.6186C53.5365 52 54.4514 52.1053 55.3453 52.3139L68 55.2667V34C68 32.8954 67.1046 32 66 32ZM34 30C31.7909 30 30 31.7909 30 34V66C30 68.2091 31.7909 70 34 70H66C68.2091 70 70 68.2091 70 66V34C70 31.7909 68.2091 30 66 30H34ZM40.9091 44.5455C42.9174 44.5455 44.5455 42.9174 44.5455 40.9091C44.5455 38.9008 42.9174 37.2727 40.9091 37.2727C38.9008 37.2727 37.2728 38.9008 37.2728 40.9091C37.2728 42.9174 38.9008 44.5455 40.9091 44.5455Z" fill="#333333"/>
</svg>
