<svg width="100" height="100" viewBox="0 0 100 100" fill="none" xmlns="http://www.w3.org/2000/svg">
  <path d="M17.5871 11.3017C15.8515 9.56608 13.0374 9.56608 11.3017 11.3017C9.56608 13.0374 9.56608 15.8515 11.3017 17.5871L41.92 48.2054L63.0439 43.2415L88.6983 17.5871C90.4339 15.8515 90.4339 13.0374 88.6983 11.3017C86.9626 9.56608 84.1485 9.56608 82.4129 11.3017L50 43.7146L17.5871 11.3017Z" />
  <path d="M59.4925 53.2071L34.6758 59.0388L11.3017 82.4129C9.56608 84.1485 9.56608 86.9626 11.3017 88.6983C13.0374 90.4339 15.8515 90.4339 17.5871 88.6983L50 56.2854L82.4129 88.6983C84.1485 90.4339 86.9626 90.4339 88.6983 88.6983C90.4339 86.9626 90.4339 84.1485 88.6983 82.4129L59.4925 53.2071Z" />
</svg>
